inDegrees=no
num_controls=7
num_derivatives=13
num_iterations=140
num_multipliers=7
num_parameters=0
num_slacks=7
num_states=26
objective=0.448220
objective_accelerations=0.049719
objective_balance=0.007295
objective_effort=0.036395
objective_height=0.349870
objective_ligament=0.004942
solver_duration=2000.084636
status=Solve_Succeeded
success=true
DataType=double
version=3
OpenSimVersion=4.5
endheader
time	/jointset/ground_pelvis/pelvis_tilt/value	/jointset/ground_pelvis/pelvis_tx/value	/jointset/ground_pelvis/pelvis_ty/value	/jointset/hip_l/hip_flexion_l/value	/jointset/hip_l/hip_adduction_l/value	/jointset/hip_l/hip_rotation_l/value	/jointset/back/lumbar_extension/value	/jointset/patellofemoral_l/patellar_flexion_l/value	/jointset/knee_l/knee_flexion_l/value	/jointset/knee_l/knee_adduction_l/value	/jointset/knee_l/knee_rotation_l/value	/jointset/ankle_l/ankle_angle_l/value	/jointset/subtalar_l/subtalar_angle_l/value	/jointset/ground_pelvis/pelvis_tilt/speed	/jointset/ground_pelvis/pelvis_tx/speed	/jointset/ground_pelvis/pelvis_ty/speed	/jointset/hip_l/hip_flexion_l/speed	/jointset/hip_l/hip_adduction_l/speed	/jointset/hip_l/hip_rotation_l/speed	/jointset/back/lumbar_extension/speed	/jointset/patellofemoral_l/patellar_flexion_l/speed	/jointset/knee_l/knee_flexion_l/speed	/jointset/knee_l/knee_adduction_l/speed	/jointset/knee_l/knee_rotation_l/speed	/jointset/ankle_l/ankle_angle_l/speed	/jointset/subtalar_l/subtalar_angle_l/speed	/forceset/tau_hip_flexion_l	/forceset/tau_hip_adduction_l	/forceset/tau_hip_rotation_l	/forceset/tau_knee_flexion_l	/forceset/tau_ankle_angle_l	/forceset/tau_subtalar_angle_l	/forceset/tau_lumbar_extension	lambda_cid13_p0	lambda_cid13_p1	lambda_cid13_p2	lambda_cid13_p3	lambda_cid13_p4	lambda_cid13_p5	lambda_cid14_p0	/jointset/ground_pelvis/pelvis_tilt/accel	/jointset/ground_pelvis/pelvis_tx/accel	/jointset/ground_pelvis/pelvis_ty/accel	/jointset/hip_l/hip_flexion_l/accel	/jointset/hip_l/hip_adduction_l/accel	/jointset/hip_l/hip_rotation_l/accel	/jointset/back/lumbar_extension/accel	/jointset/patellofemoral_l/patellar_flexion_l/accel	/jointset/knee_l/knee_flexion_l/accel	/jointset/knee_l/knee_adduction_l/accel	/jointset/knee_l/knee_rotation_l/accel	/jointset/ankle_l/ankle_angle_l/accel	/jointset/subtalar_l/subtalar_angle_l/accel	gamma_cid13_p0	gamma_cid13_p1	gamma_cid13_p2	gamma_cid13_p3	gamma_cid13_p4	gamma_cid13_p5	gamma_cid14_p0
1	-0.6509547424456598	-0.1254230813500739	0.5943774350062401	1.954883039590615	-0.2939308832167346	0.1433898906016886	-0.4363125151669456	1.216362781399439	1.21636278139944	-0.1744723604329733	0.1745022209110552	0.1094749158966431	-0.02369088068837979	-0.008089347562530725	0.0005070567782181935	-0.00212717714067316	0.0116339841063253	0.0004979447300335251	0.00183785858670607	-0.0003391957951794531	0.005088371695559229	0.00508837169555923	0.0001622991549443718	-6.46211225752731e-06	0.001923706022466492	0.000896319423297197	-0.4385281597300617	0.003120106341190305	-0.01780130358644751	-0.2558195721355448	0.130377124068411	0.02716884875189323	0.3530940066987645	-4.537426350300754	-10.90733861649914	1.225001401078287	8.067972146972386	-729.5112049561718	-44.08806491282599	-0.5340337422955916	1.809109694125321	0.2509778155783457	1.719891658368074	-6.315565323877605	-0.3965100351993388	-1.773616401420136	-0.04072770965585507	-4.758040243483209	-4.75804024348321	-0.02520934187987869	0.01378361883621011	-0.5326467780653679	-0.4906129595366843	5.508755436626503e-10	1.964534516026635e-09	-8.959376577602654e-11	-5.726420764091576e-10	1.158204494789733e-09	4.33233334398972e-10	2.342431002716721e-10
1.01	-0.6509463224184325	-0.1254055553093391	0.5944419738072734	1.954685033260478	-0.2939448708833612	0.1433186943569579	-0.4363165494154345	1.216175967443433	1.216175967443432	-0.1744698954804159	0.1745021524677271	0.1094676147354836	-0.0237054796044931	0.009725954591097275	0.002995185823512797	0.01502547336127901	-0.05117674673755065	-0.003295803805002432	-0.0160664782588446	-0.0004028043969917868	-0.04245298525789152	-0.04245298525789187	0.0003184879447106202	-9.421758665734988e-06	-0.003397727396888824	-0.003819278771661576	-0.4384723584969343	0.003185303033006332	-0.01780510849932765	-0.2556641672858382	0.1302278177654011	0.02720489921248543	0.353091934958653	-4.574493623410402	-10.91810356304241	1.228543392202023	8.081702545265854	-729.3593658224016	-44.09543132347804	-0.5367672614644052	1.760630353831595	0.2472863090150389	1.711530989397767	-6.255051951424782	-0.3708596012425989	-1.79725299027392	0.02054999039780449	-4.752455520023734	-4.752455520023735	0.03420035960231543	-0.007672116596671528	-0.5339595871116741	-0.4625121167375822	-3.69469711502371e-09	-6.74731626343114e-09	2.958826868392413e-08	3.418643493359064e-09	-5.724485373530205e-09	2.382959633043785e-08	-6.212037895910945e-09
1.02	-0.6507611713940991	-0.1253632368061495	0.5946777549619841	1.953860674624546	-0.2939968065030557	0.1430687726109414	-0.4363192742647732	1.215513685498143	1.21551368549814	-0.1744662351659214	0.1745019871558914	0.1094066856474823	-0.02376733027600843	0.0272568518587276	0.005465549269209097	0.03212129359479043	-0.1136364770527146	-0.007091645883513398	-0.03390724167045037	-7.731596513504442e-05	-0.09000522616125023	-0.09000522616125023	0.0004013715423744281	-2.58358137674062e-05	-0.008801879345886592	-0.008554031657104713	-0.4384165572638067	0.003250499724822361	-0.01780891341220778	-0.2555087624361316	0.1300785114623911	0.02724094967307762	0.3530898632185417	-4.617859236718185	-10.92751488182272	1.231583148812939	8.117854325799634	-729.2907289150443	-44.06834280028311	-0.546475124354464	1.752228716925787	0.2474246956586851	1.708525604679924	-6.245365218135208	-0.3969287438943404	-1.76090171463111	0.03709169707795988	-4.760217033464667	-4.760217033464666	-0.03987038030036679	0.01109273709751231	-0.5491904839938581	-0.4944438976335574	-6.245113131719306e-09	-1.390624591474625e-08	5.749843420556299e-08	3.919355417433341e-09	-1.148299082284848e-08	4.775358626024036e-08	-1.238877866788441e-08
1.03	-0.6504008787425336	-0.1252961883312601	0.5950842700829201	1.952412354624055	-0.294086634127839	0.1426408107636547	-0.43631831450155	1.214376169493709	1.21437616949371	-0.1744620249407793	0.174501646837324	0.109291529964043	-0.02387649069725835	0.04488012058583586	0.007952695371505987	0.04917834503087302	-0.176081372576235	-0.01086573514751203	-0.05167103977696118	0.0001821268976459458	-0.1374653082750724	-0.1374653082750722	0.000439796794534112	-3.917749428669462e-05	-0.01421974115082876	-0.01326692217862689	-0.4379869195683715	0.003365210371222949	-0.01783960232080055	-0.255281249981292	0.1300480998211128	0.02736054097032054	0.3527870275839533	-4.598254445016434	-10.98875432354274	1.248049343518193	8.058696055779853	-728.8909025636134	-44.12514375532768	-0.5633963446980165	1.779140964121537	0.2506428966513953	1.703783598006553	-6.252130846480124	-0.3664372322955265	-1.78202076385958	0.007299324059022276	-4.734000082807559	-4.73400008280756	0.02556086865307289	-0.007110636829379569	-0.536655109510271	-0.4580489352430935	-8.778231631659885e-09	-2.10493294321007e-08	8.539056200344613e-08	4.384449243082149e-09	-1.723002500258509e-08	7.168296013834659e-08	-1.856276902940677e-08
1.04	-0.6498620004009933	-0.1252040117295206	0.5956612534552037	1.950337969842926	-0.294213960288191	0.1420356305542632	-0.4363173745610628	1.212765033411644	1.212765033411649	-0.1744574580849798	0.1745012604987108	0.1091224814464012	-0.02403244748488981	0.06297398985367186	0.01049117463925107	0.06621494386432082	-0.238849433180542	-0.01459135299722689	-0.0693509140914126	-8.128051233891433e-05	-0.1847292416875576	-0.1847292416875576	0.0004726976738491672	-3.503982291457523e-05	-0.01958044618640595	-0.01791330493341092	-0.4375572818729364	0.003479921017623538	-0.01787029122939332	-0.2550537375264523	0.1300176881798343	0.02748013226756346	0.3524841919493649	-4.584960906803735	-11.04868096927095	1.264069031925391	8.021614127284549	-728.5744794685925	-44.1480279232423	-0.5878428489191933	1.846348825071333	0.2576913287483236	1.704435084152967	-6.309998234292469	-0.3872344610375849	-1.744116956219231	-0.06747835747521047	-4.720987293197279	-4.72098729319728	-0.04097525486929224	0.01458860747585526	-0.5377591301208626	-0.4811423442859287	-1.336748951784617e-08	-3.041912716008116e-08	1.128360262339864e-07	8.948411709229727e-09	-2.377018832667107e-08	9.231983895007757e-08	-2.46692067590858e-08
1.05	-0.649141085524787	-0.1250862533259409	0.5964083197190656	1.947635639725162	-0.2943783249219907	0.1412541193585038	-0.4363201176175035	1.21068204277573	1.210682042775731	-0.1744527530060804	0.1745010171095439	0.1088997833315888	-0.02423462743022835	0.08116198410706005	0.01306308178988062	0.08317687274645445	-0.301535460352801	-0.01827430581446206	-0.08693548882657039	-0.0003980230434900391	-0.2318554118882249	-0.2318554118882249	0.0004562199410258729	-1.022951624299561e-05	-0.02498174231499426	-0.02251878403814667	-0.4368328310636994	0.003646554394632546	-0.01792976357963109	-0.2547917915618885	0.1301162532021656	0.02764971082127096	0.3520896770136814	-4.513211026670384	-11.14411345324622	1.289816868932002	7.911980510617803	-728.0212057807776	-44.22474920182464	-0.6203541662969027	1.797972487294761	0.2573295406852398	1.68885023266567	-6.235738211057378	-0.3577514510952031	-1.763277776167824	-0.003376041088300065	-4.706404626076077	-4.706404626076069	0.01618975699806401	-0.003095331321494553	-0.5446979716169346	-0.449676020164209	-1.802100175985261e-08	-3.985850970714367e-08	1.402675322280473e-07	1.364046382039286e-08	-3.033513693651796e-08	1.128538272909843e-07	-3.077353346901972e-08
1.06	-0.6482397011536823	-0.1249426980243619	0.597324360960233	1.944308882685202	-0.2945793042357684	0.1402972324065919	-0.4363239488672864	1.208128195889294	1.208128195889292	-0.1744485779466118	0.1745011173087269	0.1086223956320127	-0.02448274723193361	0.09906788883333632	0.01565055423910885	0.1000099393254725	-0.3637348176196506	-0.02191428899284645	-0.104426065321879	-0.0002989191807706018	-0.2789004917918772	-0.2789004917918771	0.0003666937876791399	3.367784705643035e-05	-0.03051836313914737	-0.0271012762067549	-0.4361083802544921	0.003813187771641554	-0.01798923592986886	-0.2545298455973247	0.1302148182244734	0.02781928937497846	0.3516951620779979	-4.447787384743989	-11.23833980654732	1.31526003111635	7.823932758863409	-727.5514157209029	-44.26870365864886	-0.6615391893338021	1.789930919648953	0.2608043884680581	1.678662623529843	-6.212664253210575	-0.3786405332674301	-1.725317308249396	0.01569092129890274	-4.704769233794272	-4.704769233794271	-0.05558493897398065	0.01840801880142468	-0.5648240692338226	-0.4765449570604253	-2.060734799588081e-08	-4.622093583889199e-08	1.62444534094527e-07	1.498903576989971e-08	-3.556864942922999e-08	1.304701038956058e-07	-3.563608220800283e-08
1.07	-0.6471597422587529	-0.1247731003880997	0.5984081388932782	1.940361711291294	-0.2948163512541746	0.1391659638104061	-0.4363257846756969	1.205104510535397	1.205104510535396	-0.1744455442687857	0.1745017094843078	0.1082891295372034	-0.02477641160974966	0.116968439514932	0.01828037010109692	0.1167292434501325	-0.4257029634641253	-0.0254738624373859	-0.1218114959988951	-0.0001052368699253027	-0.3258023271316774	-0.3258023271316768	0.0002476954449743742	8.263545321806343e-05	-0.03614025388672507	-0.03160848419559435	-0.4351197524686379	0.004061637143106659	-0.01807402061156905	-0.2541923976690332	0.130384926554396	0.02806181472124563	0.3511051821073876	-4.341660356143487	-11.37548129706191	1.352236699004798	7.664864871806161	-726.8514201010573	-44.38125942109295	-0.7122430690488307	1.796796752472751	0.2657829967395939	1.666095512648688	-6.189418832891554	-0.3414487109851491	-1.742765784283912	0.01565773068659782	-4.677744751339795	-4.677744751339817	0.01107577510677341	-0.002223037727244181	-0.5616788882482829	-0.4343550446268288	-2.308373859329312e-08	-5.241969407620869e-08	1.843420410606034e-07	1.615976302995672e-08	-4.073134085188163e-08	1.479311830674461e-07	-4.043257892725452e-08
1.08	-0.6458994419349959	-0.1245768620308826	0.5996586161087126	1.935794752622376	-0.2950883605992139	0.1378613189400789	-0.4363267934920569	1.201612836014648	1.201612836014649	-0.1744434739629816	0.1745027187021003	0.1078994830727726	-0.02511445733242032	0.1351361745988426	0.02097869843010152	0.133349795803377	-0.4876922726216245	-0.02890675431948092	-0.1391013201501593	-0.0001335207707098254	-0.3724983251621536	-0.3724983251621539	0.0001740193832694855	0.0001170862893498307	-0.04179443706344439	-0.03597754517767877	-0.4341311246827838	0.004310086514571765	-0.01815880529326925	-0.2538549497407418	0.1305550348843187	0.0283043400675128	0.3505152021367772	-4.241930008549192	-11.51154110412897	1.3890847617662	7.526967513456257	-726.2356368172389	-44.46279136399279	-0.7733847902366892	1.843367800111922	0.2745068818713679	1.658912269246749	-6.216896915815343	-0.3533042207785451	-1.706196003099032	-0.02870232102706125	-4.663601771929462	-4.663601771929463	-0.04652048277400552	0.01550666479557211	-0.5712825550621513	-0.4489155557094178	-2.718372155073632e-08	-6.185358932270379e-08	2.036107643947065e-07	1.950802656055154e-08	-4.694820230147885e-08	1.638607369214302e-07	-4.535433018317763e-08
